<?xml version="1.0" encoding="UTF-8" standalone="no"?>
<!DOCTYPE svg PUBLIC "-//W3C//DTD SVG 1.1//EN" "http://www.w3.org/Graphics/SVG/1.1/DTD/svg11.dtd">
<!-- Generated by graphviz version 2.40.1 (20161225.0304)
 -->
<!-- Title: classes Pages: 1 -->
<svg width="1550pt" height="1795pt" viewBox="0.00 0.00 1550.00 1795.20" xmlns="http://www.w3.org/2000/svg" xmlns:xlink="http://www.w3.org/1999/xlink">
<g id="graph0" class="graph" transform="scale(1 1) rotate(0) translate(4 1791.2)">
<title>classes</title>
<polygon fill="#ffffff" stroke="transparent" points="-4,4 -4,-1791.2 1545.9952,-1791.2 1545.9952,4 -4,4"/>
<!-- 0 -->
<g id="node1" class="node">
<title>0</title>
<polygon fill="none" stroke="#000000" points="563.0701,-876.3 563.0701,-1051.5 672.3507,-1051.5 672.3507,-876.3 563.0701,-876.3"/>
<text text-anchor="middle" x="617.7104" y="-1034.9" font-family="Times,serif" font-size="14.00" fill="#000000">ChessBoard</text>
<polyline fill="none" stroke="#000000" points="563.0701,-1026.7 672.3507,-1026.7 "/>
<text text-anchor="start" x="571.0701" y="-1010.1" font-family="Times,serif" font-size="14.00" fill="#000000">board_pieces</text>
<text text-anchor="start" x="571.0701" y="-993.3" font-family="Times,serif" font-size="14.00" fill="#000000">controler</text>
<text text-anchor="start" x="571.0701" y="-976.5" font-family="Times,serif" font-size="14.00" fill="#000000">layout</text>
<polyline fill="none" stroke="#000000" points="563.0701,-968.3 672.3507,-968.3 "/>
<text text-anchor="start" x="571.0701" y="-951.7" font-family="Times,serif" font-size="14.00" fill="#000000">board()</text>
<text text-anchor="start" x="571.0701" y="-934.9" font-family="Times,serif" font-size="14.00" fill="#000000">delete_piece()</text>
<text text-anchor="start" x="571.0701" y="-918.1" font-family="Times,serif" font-size="14.00" fill="#000000">move()</text>
<text text-anchor="start" x="571.0701" y="-901.3" font-family="Times,serif" font-size="14.00" fill="#000000">refresh()</text>
<text text-anchor="start" x="571.0701" y="-884.5" font-family="Times,serif" font-size="14.00" fill="#000000">square_clicked()</text>
</g>
<!-- 10 -->
<g id="node11" class="node">
<title>10</title>
<polygon fill="none" stroke="#000000" points="281.1094,-1164.1 281.1094,-1322.5 380.3114,-1322.5 380.3114,-1164.1 281.1094,-1164.1"/>
<text text-anchor="middle" x="330.7104" y="-1305.9" font-family="Times,serif" font-size="14.00" fill="#000000">chessUI</text>
<polyline fill="none" stroke="#000000" points="281.1094,-1297.7 380.3114,-1297.7 "/>
<text text-anchor="start" x="289.1094" y="-1281.1" font-family="Times,serif" font-size="14.00" fill="#000000">chess_board</text>
<text text-anchor="start" x="289.1094" y="-1264.3" font-family="Times,serif" font-size="14.00" fill="#000000">chess_timer</text>
<text text-anchor="start" x="289.1094" y="-1247.5" font-family="Times,serif" font-size="14.00" fill="#000000">game_state</text>
<text text-anchor="start" x="289.1094" y="-1230.7" font-family="Times,serif" font-size="14.00" fill="#000000">restart_options</text>
<text text-anchor="start" x="289.1094" y="-1213.9" font-family="Times,serif" font-size="14.00" fill="#000000">save_options</text>
<text text-anchor="start" x="289.1094" y="-1197.1" font-family="Times,serif" font-size="14.00" fill="#000000">start_option</text>
<polyline fill="none" stroke="#000000" points="281.1094,-1188.9 380.3114,-1188.9 "/>
<text text-anchor="middle" x="330.7104" y="-1172.3" font-family="Times,serif" font-size="14.00" fill="#000000"> </text>
</g>
<!-- 0&#45;&gt;10 -->
<g id="edge2" class="edge">
<title>0-&gt;10</title>
<path fill="none" stroke="#000000" d="M586.5484,-1051.8165C577.4652,-1072.0788 566.4815,-1092.9148 553.7104,-1110.8 514.0529,-1166.338 443.2058,-1202.5532 391.9905,-1222.8611"/>
<polygon fill="#000000" stroke="#000000" points="391.9276,-1222.8852 387.7657,-1228.7741 380.7291,-1227.1972 384.891,-1221.3084 391.9276,-1222.8852"/>
<text text-anchor="middle" x="571.3072" y="-1133" font-family="Times,serif" font-size="14.00" fill="#00ff00">chess_board</text>
</g>
<!-- 1 -->
<g id="node2" class="node">
<title>1</title>
<polygon fill="none" stroke="#000000" points="533.9116,-302.9 533.9116,-461.3 701.5092,-461.3 701.5092,-302.9 533.9116,-302.9"/>
<text text-anchor="middle" x="617.7104" y="-444.7" font-family="Times,serif" font-size="14.00" fill="#000000">ChessPieces</text>
<polyline fill="none" stroke="#000000" points="533.9116,-436.5 701.5092,-436.5 "/>
<text text-anchor="start" x="541.9116" y="-419.9" font-family="Times,serif" font-size="14.00" fill="#000000">controler</text>
<text text-anchor="start" x="541.9116" y="-403.1" font-family="Times,serif" font-size="14.00" fill="#000000">layout</text>
<polyline fill="none" stroke="#000000" points="533.9116,-394.9 701.5092,-394.9 "/>
<text text-anchor="start" x="541.9116" y="-378.3" font-family="Times,serif" font-size="14.00" fill="#000000">delete_piece()</text>
<text text-anchor="start" x="541.9116" y="-361.5" font-family="Times,serif" font-size="14.00" fill="#000000">execute_with_delay(delay)</text>
<text text-anchor="start" x="541.9116" y="-344.7" font-family="Times,serif" font-size="14.00" fill="#000000">piece_clicked()</text>
<text text-anchor="start" x="541.9116" y="-327.9" font-family="Times,serif" font-size="14.00" fill="#000000">pieces()</text>
<text text-anchor="start" x="541.9116" y="-311.1" font-family="Times,serif" font-size="14.00" fill="#000000">refresh()</text>
</g>
<!-- 1&#45;&gt;0 -->
<g id="edge3" class="edge">
<title>1-&gt;0</title>
<path fill="none" stroke="#000000" d="M617.7104,-461.473C617.7104,-566.0304 617.7104,-749.9518 617.7104,-863.8993"/>
<polygon fill="#000000" stroke="#000000" points="617.7105,-864.0692 621.7104,-870.0693 617.7104,-876.0692 613.7104,-870.0692 617.7105,-864.0692"/>
<text text-anchor="middle" x="654.6375" y="-786.4" font-family="Times,serif" font-size="14.00" fill="#00ff00">board_pieces</text>
</g>
<!-- 2 -->
<g id="node3" class="node">
<title>2</title>
<polygon fill="none" stroke="#000000" points="0,-817.5 0,-1110.3 91.4208,-1110.3 91.4208,-817.5 0,-817.5"/>
<text text-anchor="middle" x="45.7104" y="-1093.7" font-family="Times,serif" font-size="14.00" fill="#000000">ChessTimer</text>
<polyline fill="none" stroke="#000000" points="0,-1085.5 91.4208,-1085.5 "/>
<text text-anchor="start" x="8" y="-1068.9" font-family="Times,serif" font-size="14.00" fill="#000000">controler</text>
<text text-anchor="start" x="8" y="-1052.1" font-family="Times,serif" font-size="14.00" fill="#000000">label</text>
<text text-anchor="start" x="8" y="-1035.3" font-family="Times,serif" font-size="14.00" fill="#000000">label2</text>
<text text-anchor="start" x="8" y="-1018.5" font-family="Times,serif" font-size="14.00" fill="#000000">time</text>
<text text-anchor="start" x="8" y="-1001.7" font-family="Times,serif" font-size="14.00" fill="#000000">time2</text>
<text text-anchor="start" x="8" y="-984.9" font-family="Times,serif" font-size="14.00" fill="#000000">timer</text>
<text text-anchor="start" x="8" y="-968.1" font-family="Times,serif" font-size="14.00" fill="#000000">timer2</text>
<polyline fill="none" stroke="#000000" points="0,-959.9 91.4208,-959.9 "/>
<text text-anchor="start" x="8" y="-943.3" font-family="Times,serif" font-size="14.00" fill="#000000">editDesign()</text>
<text text-anchor="start" x="8" y="-926.5" font-family="Times,serif" font-size="14.00" fill="#000000">endTimer()</text>
<text text-anchor="start" x="8" y="-909.7" font-family="Times,serif" font-size="14.00" fill="#000000">endTimer2()</text>
<text text-anchor="start" x="8" y="-892.9" font-family="Times,serif" font-size="14.00" fill="#000000">refresh()</text>
<text text-anchor="start" x="8" y="-876.1" font-family="Times,serif" font-size="14.00" fill="#000000">showTime()</text>
<text text-anchor="start" x="8" y="-859.3" font-family="Times,serif" font-size="14.00" fill="#000000">showTime2()</text>
<text text-anchor="start" x="8" y="-842.5" font-family="Times,serif" font-size="14.00" fill="#000000">startTimer()</text>
<text text-anchor="start" x="8" y="-825.7" font-family="Times,serif" font-size="14.00" fill="#000000">startTimer2()</text>
</g>
<!-- 2&#45;&gt;10 -->
<g id="edge4" class="edge">
<title>2-&gt;10</title>
<path fill="none" stroke="#000000" d="M91.4488,-1107.2891C100.4409,-1121.6276 111.1378,-1134.8352 123.845,-1145.6 166.8261,-1182.0111 225.6757,-1208.0647 269.6192,-1224.0616"/>
<polygon fill="#000000" stroke="#000000" points="269.7122,-1224.0945 276.7048,-1222.3325 281.0207,-1228.1094 274.0282,-1229.8715 269.7122,-1224.0945"/>
<text text-anchor="middle" x="158.1431" y="-1133" font-family="Times,serif" font-size="14.00" fill="#00ff00">chess_timer</text>
</g>
<!-- 3 -->
<g id="node4" class="node">
<title>3</title>
<polygon fill="none" stroke="#000000" points="719.3832,-319.7 719.3832,-444.5 962.0376,-444.5 962.0376,-319.7 719.3832,-319.7"/>
<text text-anchor="middle" x="840.7104" y="-427.9" font-family="Times,serif" font-size="14.00" fill="#000000">ClickableLabel</text>
<polyline fill="none" stroke="#000000" points="719.3832,-419.7 962.0376,-419.7 "/>
<text text-anchor="start" x="727.3832" y="-403.1" font-family="Times,serif" font-size="14.00" fill="#000000">clicked</text>
<text text-anchor="start" x="727.3832" y="-386.3" font-family="Times,serif" font-size="14.00" fill="#000000">j : int</text>
<text text-anchor="start" x="727.3832" y="-369.5" font-family="Times,serif" font-size="14.00" fill="#000000">type : str</text>
<text text-anchor="start" x="727.3832" y="-352.7" font-family="Times,serif" font-size="14.00" fill="#000000">x : int</text>
<polyline fill="none" stroke="#000000" points="719.3832,-344.5 962.0376,-344.5 "/>
<text text-anchor="start" x="727.3832" y="-327.9" font-family="Times,serif" font-size="14.00" fill="#000000">mousePressEvent(event: QMouseEvent)</text>
</g>
<!-- 4 -->
<g id="node5" class="node">
<title>4</title>
<polygon fill="none" stroke="#000000" points="979.7966,-.5 979.7966,-763.7 1181.6242,-763.7 1181.6242,-.5 979.7966,-.5"/>
<text text-anchor="middle" x="1080.7104" y="-747.1" font-family="Times,serif" font-size="14.00" fill="#000000">Controler</text>
<polyline fill="none" stroke="#000000" points="979.7966,-738.9 1181.6242,-738.9 "/>
<text text-anchor="start" x="987.7966" y="-722.3" font-family="Times,serif" font-size="14.00" fill="#000000">IA2_level : int</text>
<text text-anchor="start" x="987.7966" y="-705.5" font-family="Times,serif" font-size="14.00" fill="#000000">IA_level : int</text>
<text text-anchor="start" x="987.7966" y="-688.7" font-family="Times,serif" font-size="14.00" fill="#000000">L</text>
<text text-anchor="start" x="987.7966" y="-671.9" font-family="Times,serif" font-size="14.00" fill="#000000">board</text>
<text text-anchor="start" x="987.7966" y="-655.1" font-family="Times,serif" font-size="14.00" fill="#000000">game_type : int</text>
<text text-anchor="start" x="987.7966" y="-638.3" font-family="Times,serif" font-size="14.00" fill="#000000">i : int</text>
<text text-anchor="start" x="987.7966" y="-621.5" font-family="Times,serif" font-size="14.00" fill="#000000">iMax : int</text>
<text text-anchor="start" x="987.7966" y="-604.7" font-family="Times,serif" font-size="14.00" fill="#000000">l_enemy_moves : list</text>
<text text-anchor="start" x="987.7966" y="-587.9" font-family="Times,serif" font-size="14.00" fill="#000000">l_possible_moves</text>
<text text-anchor="start" x="987.7966" y="-571.1" font-family="Times,serif" font-size="14.00" fill="#000000">l_valid_moves : list</text>
<text text-anchor="start" x="987.7966" y="-554.3" font-family="Times,serif" font-size="14.00" fill="#000000">make_move : bool</text>
<text text-anchor="start" x="987.7966" y="-537.5" font-family="Times,serif" font-size="14.00" fill="#000000">model</text>
<text text-anchor="start" x="987.7966" y="-520.7" font-family="Times,serif" font-size="14.00" fill="#000000">piece : list</text>
<text text-anchor="start" x="987.7966" y="-503.9" font-family="Times,serif" font-size="14.00" fill="#000000">pos : list</text>
<text text-anchor="start" x="987.7966" y="-487.1" font-family="Times,serif" font-size="14.00" fill="#000000">refresh_functions : bool</text>
<text text-anchor="start" x="987.7966" y="-470.3" font-family="Times,serif" font-size="14.00" fill="#000000">result : bool</text>
<text text-anchor="start" x="987.7966" y="-453.5" font-family="Times,serif" font-size="14.00" fill="#000000">selected_moves_alg : list</text>
<text text-anchor="start" x="987.7966" y="-436.7" font-family="Times,serif" font-size="14.00" fill="#000000">selected_moves_geo : list</text>
<text text-anchor="start" x="987.7966" y="-419.9" font-family="Times,serif" font-size="14.00" fill="#000000">server : int</text>
<text text-anchor="start" x="987.7966" y="-403.1" font-family="Times,serif" font-size="14.00" fill="#000000">string_result : str</text>
<text text-anchor="start" x="987.7966" y="-386.3" font-family="Times,serif" font-size="14.00" fill="#000000">time : int</text>
<text text-anchor="start" x="987.7966" y="-369.5" font-family="Times,serif" font-size="14.00" fill="#000000">timeMAX : int</text>
<text text-anchor="start" x="987.7966" y="-352.7" font-family="Times,serif" font-size="14.00" fill="#000000">turn : str</text>
<text text-anchor="start" x="987.7966" y="-335.9" font-family="Times,serif" font-size="14.00" fill="#000000">user : str</text>
<polyline fill="none" stroke="#000000" points="979.7966,-327.7 1181.6242,-327.7 "/>
<text text-anchor="start" x="987.7966" y="-311.1" font-family="Times,serif" font-size="14.00" fill="#000000">IA_initial_move()</text>
<text text-anchor="start" x="987.7966" y="-294.3" font-family="Times,serif" font-size="14.00" fill="#000000">IA_move(IA_level)</text>
<text text-anchor="start" x="987.7966" y="-277.5" font-family="Times,serif" font-size="14.00" fill="#000000">clicked_piece(piece)</text>
<text text-anchor="start" x="987.7966" y="-260.7" font-family="Times,serif" font-size="14.00" fill="#000000">game()</text>
<text text-anchor="start" x="987.7966" y="-243.9" font-family="Times,serif" font-size="14.00" fill="#000000">giveHistoryString()</text>
<text text-anchor="start" x="987.7966" y="-227.1" font-family="Times,serif" font-size="14.00" fill="#000000">give_final_result(king)</text>
<text text-anchor="start" x="987.7966" y="-210.3" font-family="Times,serif" font-size="14.00" fill="#000000">give_game_state()</text>
<text text-anchor="start" x="987.7966" y="-193.5" font-family="Times,serif" font-size="14.00" fill="#000000">give_map()</text>
<text text-anchor="start" x="987.7966" y="-176.7" font-family="Times,serif" font-size="14.00" fill="#000000">give_map_board()</text>
<text text-anchor="start" x="987.7966" y="-159.9" font-family="Times,serif" font-size="14.00" fill="#000000">give_valid_moves()</text>
<text text-anchor="start" x="987.7966" y="-143.1" font-family="Times,serif" font-size="14.00" fill="#000000">give_who_plays()</text>
<text text-anchor="start" x="987.7966" y="-126.3" font-family="Times,serif" font-size="14.00" fill="#000000">load(fileName)</text>
<text text-anchor="start" x="987.7966" y="-109.5" font-family="Times,serif" font-size="14.00" fill="#000000">save(fileName)</text>
<text text-anchor="start" x="987.7966" y="-92.7" font-family="Times,serif" font-size="14.00" fill="#000000">send_IA_move(IA_level)</text>
<text text-anchor="start" x="987.7966" y="-75.9" font-family="Times,serif" font-size="14.00" fill="#000000">send_U_move(piece, movement)</text>
<text text-anchor="start" x="987.7966" y="-59.1" font-family="Times,serif" font-size="14.00" fill="#000000">send_who_plays()</text>
<text text-anchor="start" x="987.7966" y="-42.3" font-family="Times,serif" font-size="14.00" fill="#000000">user_move()</text>
<text text-anchor="start" x="987.7966" y="-25.5" font-family="Times,serif" font-size="14.00" fill="#000000">user_vs_IA()</text>
<text text-anchor="start" x="987.7966" y="-8.7" font-family="Times,serif" font-size="14.00" fill="#000000">user_vs_user()</text>
</g>
<!-- 5 -->
<g id="node6" class="node">
<title>5</title>
<polygon fill="none" stroke="#000000" points="1025.2805,-918.3 1025.2805,-1009.5 1136.1403,-1009.5 1136.1403,-918.3 1025.2805,-918.3"/>
<text text-anchor="middle" x="1080.7104" y="-992.9" font-family="Times,serif" font-size="14.00" fill="#000000">ControlerBase</text>
<polyline fill="none" stroke="#000000" points="1025.2805,-984.7 1136.1403,-984.7 "/>
<text text-anchor="start" x="1033.2805" y="-968.1" font-family="Times,serif" font-size="14.00" fill="#000000">clients : list</text>
<polyline fill="none" stroke="#000000" points="1025.2805,-959.9 1136.1403,-959.9 "/>
<text text-anchor="start" x="1033.2805" y="-943.3" font-family="Times,serif" font-size="14.00" fill="#000000">addClient(client)</text>
<text text-anchor="start" x="1033.2805" y="-926.5" font-family="Times,serif" font-size="14.00" fill="#000000">refreshAll()</text>
</g>
<!-- 4&#45;&gt;5 -->
<g id="edge1" class="edge">
<title>4-&gt;5</title>
<path fill="none" stroke="#000000" d="M1080.7104,-764.0845C1080.7104,-820.1339 1080.7104,-871.1658 1080.7104,-907.6267"/>
<polygon fill="none" stroke="#000000" points="1077.2105,-907.989 1080.7104,-917.9891 1084.2105,-907.9891 1077.2105,-907.989"/>
</g>
<!-- 6 -->
<g id="node7" class="node">
<title>6</title>
<polygon fill="none" stroke="#000000" points="1199.4256,-227.3 1199.4256,-536.9 1541.9952,-536.9 1541.9952,-227.3 1199.4256,-227.3"/>
<text text-anchor="middle" x="1370.7104" y="-520.3" font-family="Times,serif" font-size="14.00" fill="#000000">Game</text>
<polyline fill="none" stroke="#000000" points="1199.4256,-512.1 1541.9952,-512.1 "/>
<text text-anchor="start" x="1207.4256" y="-495.5" font-family="Times,serif" font-size="14.00" fill="#000000">board</text>
<text text-anchor="start" x="1207.4256" y="-478.7" font-family="Times,serif" font-size="14.00" fill="#000000">l_enemy_moves : list</text>
<text text-anchor="start" x="1207.4256" y="-461.9" font-family="Times,serif" font-size="14.00" fill="#000000">l_possible_moves : list</text>
<text text-anchor="start" x="1207.4256" y="-445.1" font-family="Times,serif" font-size="14.00" fill="#000000">l_valid_moves : list</text>
<polyline fill="none" stroke="#000000" points="1199.4256,-436.9 1541.9952,-436.9 "/>
<text text-anchor="start" x="1207.4256" y="-420.3" font-family="Times,serif" font-size="14.00" fill="#000000">change_pawn(position, pieces_in_board, pawn_idx, team)</text>
<text text-anchor="start" x="1207.4256" y="-403.5" font-family="Times,serif" font-size="14.00" fill="#000000">change_who_plays()</text>
<text text-anchor="start" x="1207.4256" y="-386.7" font-family="Times,serif" font-size="14.00" fill="#000000">find_rook(pieces_board, direction)</text>
<text text-anchor="start" x="1207.4256" y="-369.9" font-family="Times,serif" font-size="14.00" fill="#000000">game()</text>
<text text-anchor="start" x="1207.4256" y="-353.1" font-family="Times,serif" font-size="14.00" fill="#000000">move_IA(level, l_possible_moves, l_enemy_moves)</text>
<text text-anchor="start" x="1207.4256" y="-336.3" font-family="Times,serif" font-size="14.00" fill="#000000">move_User(l_possible_moves, piece, movement)</text>
<text text-anchor="start" x="1207.4256" y="-319.5" font-family="Times,serif" font-size="14.00" fill="#000000">move_piece(piece, movement)</text>
<text text-anchor="start" x="1207.4256" y="-302.7" font-family="Times,serif" font-size="14.00" fill="#000000">possible_moves()</text>
<text text-anchor="start" x="1207.4256" y="-285.9" font-family="Times,serif" font-size="14.00" fill="#000000">register_en_passant(x, y, piece, add, enemies_board)</text>
<text text-anchor="start" x="1207.4256" y="-269.1" font-family="Times,serif" font-size="14.00" fill="#000000">show_valid_moves()</text>
<text text-anchor="start" x="1207.4256" y="-252.3" font-family="Times,serif" font-size="14.00" fill="#000000">simulate_check(l_possible_moves)</text>
<text text-anchor="start" x="1207.4256" y="-235.5" font-family="Times,serif" font-size="14.00" fill="#000000">test_roque(current_x, movement_x, y, piece)</text>
</g>
<!-- 7 -->
<g id="node8" class="node">
<title>7</title>
<polygon fill="none" stroke="#000000" points="253.8941,-1376.3 253.8941,-1786.7 407.5267,-1786.7 407.5267,-1376.3 253.8941,-1376.3"/>
<text text-anchor="middle" x="330.7104" y="-1770.1" font-family="Times,serif" font-size="14.00" fill="#000000">MainWindow</text>
<polyline fill="none" stroke="#000000" points="253.8941,-1761.9 407.5267,-1761.9 "/>
<text text-anchor="start" x="261.8941" y="-1745.3" font-family="Times,serif" font-size="14.00" fill="#000000">IA1_level</text>
<text text-anchor="start" x="261.8941" y="-1728.5" font-family="Times,serif" font-size="14.00" fill="#000000">IA2_level</text>
<text text-anchor="start" x="261.8941" y="-1711.7" font-family="Times,serif" font-size="14.00" fill="#000000">IA_level</text>
<text text-anchor="start" x="261.8941" y="-1694.9" font-family="Times,serif" font-size="14.00" fill="#000000">User_team</text>
<text text-anchor="start" x="261.8941" y="-1678.1" font-family="Times,serif" font-size="14.00" fill="#000000">controler</text>
<text text-anchor="start" x="261.8941" y="-1661.3" font-family="Times,serif" font-size="14.00" fill="#000000">game_type</text>
<text text-anchor="start" x="261.8941" y="-1644.5" font-family="Times,serif" font-size="14.00" fill="#000000">layout</text>
<text text-anchor="start" x="261.8941" y="-1627.7" font-family="Times,serif" font-size="14.00" fill="#000000">load</text>
<text text-anchor="start" x="261.8941" y="-1610.9" font-family="Times,serif" font-size="14.00" fill="#000000">mainwidget</text>
<text text-anchor="start" x="261.8941" y="-1594.1" font-family="Times,serif" font-size="14.00" fill="#000000">start_button</text>
<text text-anchor="start" x="261.8941" y="-1577.3" font-family="Times,serif" font-size="14.00" fill="#000000">time_max</text>
<polyline fill="none" stroke="#000000" points="253.8941,-1569.1 407.5267,-1569.1 "/>
<text text-anchor="start" x="261.8941" y="-1552.5" font-family="Times,serif" font-size="14.00" fill="#000000">IA_vs_IA()</text>
<text text-anchor="start" x="261.8941" y="-1535.7" font-family="Times,serif" font-size="14.00" fill="#000000">IA_vs_IA_level1()</text>
<text text-anchor="start" x="261.8941" y="-1518.9" font-family="Times,serif" font-size="14.00" fill="#000000">IA_vs_IA_level2()</text>
<text text-anchor="start" x="261.8941" y="-1502.1" font-family="Times,serif" font-size="14.00" fill="#000000">IA_vs_player_level()</text>
<text text-anchor="start" x="261.8941" y="-1485.3" font-family="Times,serif" font-size="14.00" fill="#000000">IA_vs_player_team()</text>
<text text-anchor="start" x="261.8941" y="-1468.5" font-family="Times,serif" font-size="14.00" fill="#000000">change_time()</text>
<text text-anchor="start" x="261.8941" y="-1451.7" font-family="Times,serif" font-size="14.00" fill="#000000">loadFile()</text>
<text text-anchor="start" x="261.8941" y="-1434.9" font-family="Times,serif" font-size="14.00" fill="#000000">next_option(game_type)</text>
<text text-anchor="start" x="261.8941" y="-1418.1" font-family="Times,serif" font-size="14.00" fill="#000000">player_vs_IA()</text>
<text text-anchor="start" x="261.8941" y="-1401.3" font-family="Times,serif" font-size="14.00" fill="#000000">player_vs_player()</text>
<text text-anchor="start" x="261.8941" y="-1384.5" font-family="Times,serif" font-size="14.00" fill="#000000">start_game()</text>
</g>
<!-- 8 -->
<g id="node9" class="node">
<title>8</title>
<polygon fill="none" stroke="#000000" points="109.0189,-918.3 109.0189,-1009.5 214.4019,-1009.5 214.4019,-918.3 109.0189,-918.3"/>
<text text-anchor="middle" x="161.7104" y="-992.9" font-family="Times,serif" font-size="14.00" fill="#000000">RestartInterface</text>
<polyline fill="none" stroke="#000000" points="109.0189,-984.7 214.4019,-984.7 "/>
<text text-anchor="start" x="117.0189" y="-968.1" font-family="Times,serif" font-size="14.00" fill="#000000">controler</text>
<text text-anchor="start" x="117.0189" y="-951.3" font-family="Times,serif" font-size="14.00" fill="#000000">res_button</text>
<polyline fill="none" stroke="#000000" points="109.0189,-943.1 214.4019,-943.1 "/>
<text text-anchor="middle" x="161.7104" y="-926.5" font-family="Times,serif" font-size="14.00" fill="#000000"> </text>
</g>
<!-- 8&#45;&gt;10 -->
<g id="edge5" class="edge">
<title>8-&gt;10</title>
<path fill="none" stroke="#000000" d="M163.0342,-1009.801C166.0938,-1048.6963 175.2156,-1104.5335 201.5084,-1145.6 218.6339,-1172.3483 245.7956,-1194.5109 270.805,-1210.928"/>
<polygon fill="#000000" stroke="#000000" points="270.8528,-1210.9582 278.062,-1210.7925 280.9877,-1217.3834 273.7785,-1217.5491 270.8528,-1210.9582"/>
<text text-anchor="middle" x="243.3114" y="-1133" font-family="Times,serif" font-size="14.00" fill="#00ff00">restart_options</text>
</g>
<!-- 9 -->
<g id="node10" class="node">
<title>9</title>
<polygon fill="none" stroke="#000000" points="232.8829,-909.9 232.8829,-1017.9 316.5379,-1017.9 316.5379,-909.9 232.8829,-909.9"/>
<text text-anchor="middle" x="274.7104" y="-1001.3" font-family="Times,serif" font-size="14.00" fill="#000000">SaveFile</text>
<polyline fill="none" stroke="#000000" points="232.8829,-993.1 316.5379,-993.1 "/>
<text text-anchor="start" x="240.8829" y="-976.5" font-family="Times,serif" font-size="14.00" fill="#000000">controler</text>
<text text-anchor="start" x="240.8829" y="-959.7" font-family="Times,serif" font-size="14.00" fill="#000000">hist : list</text>
<text text-anchor="start" x="240.8829" y="-942.9" font-family="Times,serif" font-size="14.00" fill="#000000">save_button</text>
<polyline fill="none" stroke="#000000" points="232.8829,-934.7 316.5379,-934.7 "/>
<text text-anchor="start" x="240.8829" y="-918.1" font-family="Times,serif" font-size="14.00" fill="#000000">save_data()</text>
</g>
<!-- 9&#45;&gt;10 -->
<g id="edge6" class="edge">
<title>9-&gt;10</title>
<path fill="none" stroke="#000000" d="M275.6908,-1018.2329C277.3381,-1054.6943 281.4695,-1103.5609 291.6108,-1145.6 292.1343,-1147.7701 292.6969,-1149.9556 293.2937,-1152.1501"/>
<polygon fill="#000000" stroke="#000000" points="293.3762,-1152.4291 298.915,-1157.0466 296.783,-1163.9353 291.2442,-1159.3178 293.3762,-1152.4291"/>
<text text-anchor="middle" x="328.2602" y="-1133" font-family="Times,serif" font-size="14.00" fill="#00ff00">save_options</text>
</g>
<!-- 10&#45;&gt;7 -->
<g id="edge7" class="edge">
<title>10-&gt;7</title>
<path fill="none" stroke="#000000" d="M330.7104,-1322.5929C330.7104,-1335.5579 330.7104,-1349.5151 330.7104,-1363.9891"/>
<polygon fill="#000000" stroke="#000000" points="330.7105,-1364.2583 334.7104,-1370.2584 330.7104,-1376.2583 326.7104,-1370.2583 330.7105,-1364.2583"/>
<text text-anchor="middle" x="363.7595" y="-1345.2" font-family="Times,serif" font-size="14.00" fill="#00ff00">mainwidget</text>
</g>
<!-- 11 -->
<g id="node12" class="node">
<title>11</title>
<polygon fill="none" stroke="#000000" points="334.3955,-918.3 334.3955,-1009.5 439.0253,-1009.5 439.0253,-918.3 334.3955,-918.3"/>
<text text-anchor="middle" x="386.7104" y="-992.9" font-family="Times,serif" font-size="14.00" fill="#000000">labelGameState</text>
<polyline fill="none" stroke="#000000" points="334.3955,-984.7 439.0253,-984.7 "/>
<text text-anchor="start" x="342.3955" y="-968.1" font-family="Times,serif" font-size="14.00" fill="#000000">controler</text>
<text text-anchor="start" x="342.3955" y="-951.3" font-family="Times,serif" font-size="14.00" fill="#000000">game_state</text>
<polyline fill="none" stroke="#000000" points="334.3955,-943.1 439.0253,-943.1 "/>
<text text-anchor="start" x="342.3955" y="-926.5" font-family="Times,serif" font-size="14.00" fill="#000000">refresh()</text>
</g>
<!-- 11&#45;&gt;10 -->
<g id="edge8" class="edge">
<title>11-&gt;10</title>
<path fill="none" stroke="#000000" d="M383.906,-1009.5446C380.9819,-1046.577 375.2902,-1099.9408 364.7104,-1145.6 364.2078,-1147.7692 363.6741,-1149.9575 363.1135,-1152.1579"/>
<polygon fill="#000000" stroke="#000000" points="363.0409,-1152.4243 365.321,-1159.2655 359.8831,-1164.0014 357.603,-1157.1603 363.0409,-1152.4243"/>
<text text-anchor="middle" x="400.1978" y="-1133" font-family="Times,serif" font-size="14.00" fill="#00ff00">game_state</text>
</g>
<!-- 12 -->
<g id="node13" class="node">
<title>12</title>
<polygon fill="none" stroke="#000000" points="456.5631,-909.9 456.5631,-1017.9 544.8577,-1017.9 544.8577,-909.9 456.5631,-909.9"/>
<text text-anchor="middle" x="500.7104" y="-1001.3" font-family="Times,serif" font-size="14.00" fill="#000000">startIAGame</text>
<polyline fill="none" stroke="#000000" points="456.5631,-993.1 544.8577,-993.1 "/>
<text text-anchor="start" x="464.5631" y="-976.5" font-family="Times,serif" font-size="14.00" fill="#000000">controler</text>
<text text-anchor="start" x="464.5631" y="-959.7" font-family="Times,serif" font-size="14.00" fill="#000000">start_button</text>
<polyline fill="none" stroke="#000000" points="456.5631,-951.5 544.8577,-951.5 "/>
<text text-anchor="start" x="464.5631" y="-934.9" font-family="Times,serif" font-size="14.00" fill="#000000">refresh()</text>
<text text-anchor="start" x="464.5631" y="-918.1" font-family="Times,serif" font-size="14.00" fill="#000000">start()</text>
</g>
<!-- 12&#45;&gt;10 -->
<g id="edge9" class="edge">
<title>12-&gt;10</title>
<path fill="none" stroke="#000000" d="M488.5514,-1018.2907C478.4109,-1056.1227 461.4197,-1106.5701 435.7104,-1145.6 423.1711,-1164.6363 406.1724,-1182.5517 389.5074,-1197.7134"/>
<polygon fill="#000000" stroke="#000000" points="389.3034,-1197.8938 387.4583,-1204.8649 380.3138,-1205.8429 382.1589,-1198.8718 389.3034,-1197.8938"/>
<text text-anchor="middle" x="478.1515" y="-1133" font-family="Times,serif" font-size="14.00" fill="#00ff00">start_option</text>
</g>
</g>
</svg>