<?xml version="1.0" encoding="UTF-8" standalone="no"?>
<!DOCTYPE svg PUBLIC "-//W3C//DTD SVG 1.1//EN" "http://www.w3.org/Graphics/SVG/1.1/DTD/svg11.dtd">
<!-- Generated by graphviz version 2.40.1 (20161225.0304)
 -->
<!-- Title: classes Pages: 1 -->
<svg width="1987pt" height="1543pt" viewBox="0.00 0.00 1987.36 1543.20" xmlns="http://www.w3.org/2000/svg" xmlns:xlink="http://www.w3.org/1999/xlink">
<g id="graph0" class="graph" transform="scale(1 1) rotate(0) translate(4 1539.2)">
<title>classes</title>
<polygon fill="#ffffff" stroke="transparent" points="-4,4 -4,-1539.2 1983.3626,-1539.2 1983.3626,4 -4,4"/>
<!-- 0 -->
<g id="node1" class="node">
<title>0</title>
<polygon fill="none" stroke="#000000" points="563.0701,-607.5 563.0701,-782.7 672.3507,-782.7 672.3507,-607.5 563.0701,-607.5"/>
<text text-anchor="middle" x="617.7104" y="-766.1" font-family="Times,serif" font-size="14.00" fill="#000000">ChessBoard</text>
<polyline fill="none" stroke="#000000" points="563.0701,-757.9 672.3507,-757.9 "/>
<text text-anchor="start" x="571.0701" y="-741.3" font-family="Times,serif" font-size="14.00" fill="#000000">board_pieces</text>
<text text-anchor="start" x="571.0701" y="-724.5" font-family="Times,serif" font-size="14.00" fill="#000000">controler</text>
<text text-anchor="start" x="571.0701" y="-707.7" font-family="Times,serif" font-size="14.00" fill="#000000">layout</text>
<polyline fill="none" stroke="#000000" points="563.0701,-699.5 672.3507,-699.5 "/>
<text text-anchor="start" x="571.0701" y="-682.9" font-family="Times,serif" font-size="14.00" fill="#000000">board()</text>
<text text-anchor="start" x="571.0701" y="-666.1" font-family="Times,serif" font-size="14.00" fill="#000000">delete_piece()</text>
<text text-anchor="start" x="571.0701" y="-649.3" font-family="Times,serif" font-size="14.00" fill="#000000">move()</text>
<text text-anchor="start" x="571.0701" y="-632.5" font-family="Times,serif" font-size="14.00" fill="#000000">refresh()</text>
<text text-anchor="start" x="571.0701" y="-615.7" font-family="Times,serif" font-size="14.00" fill="#000000">square_clicked()</text>
</g>
<!-- 8 -->
<g id="node9" class="node">
<title>8</title>
<polygon fill="none" stroke="#000000" points="281.1094,-912.1 281.1094,-1070.5 380.3114,-1070.5 380.3114,-912.1 281.1094,-912.1"/>
<text text-anchor="middle" x="330.7104" y="-1053.9" font-family="Times,serif" font-size="14.00" fill="#000000">chessUI</text>
<polyline fill="none" stroke="#000000" points="281.1094,-1045.7 380.3114,-1045.7 "/>
<text text-anchor="start" x="289.1094" y="-1029.1" font-family="Times,serif" font-size="14.00" fill="#000000">chess_board</text>
<text text-anchor="start" x="289.1094" y="-1012.3" font-family="Times,serif" font-size="14.00" fill="#000000">chess_timer</text>
<text text-anchor="start" x="289.1094" y="-995.5" font-family="Times,serif" font-size="14.00" fill="#000000">game_state</text>
<text text-anchor="start" x="289.1094" y="-978.7" font-family="Times,serif" font-size="14.00" fill="#000000">restart_options</text>
<text text-anchor="start" x="289.1094" y="-961.9" font-family="Times,serif" font-size="14.00" fill="#000000">save_options</text>
<text text-anchor="start" x="289.1094" y="-945.1" font-family="Times,serif" font-size="14.00" fill="#000000">start_option</text>
<polyline fill="none" stroke="#000000" points="281.1094,-936.9 380.3114,-936.9 "/>
<text text-anchor="middle" x="330.7104" y="-920.3" font-family="Times,serif" font-size="14.00" fill="#000000"> </text>
</g>
<!-- 0&#45;&gt;8 -->
<g id="edge3" class="edge">
<title>0-&gt;8</title>
<path fill="none" stroke="#000000" d="M591.7911,-782.9085C582.0387,-808.5923 569.4128,-835.8974 553.7104,-858.8 515.0021,-915.2577 443.6408,-951.384 392.0499,-971.4185"/>
<polygon fill="#000000" stroke="#000000" points="391.9366,-971.4611 387.731,-977.3189 380.7063,-975.6898 384.9119,-969.832 391.9366,-971.4611"/>
<text text-anchor="middle" x="571.3072" y="-881" font-family="Times,serif" font-size="14.00" fill="#00ff00">chess_board</text>
</g>
<!-- 1 -->
<g id="node2" class="node">
<title>1</title>
<polygon fill="none" stroke="#000000" points="533.9116,-160.1 533.9116,-318.5 701.5092,-318.5 701.5092,-160.1 533.9116,-160.1"/>
<text text-anchor="middle" x="617.7104" y="-301.9" font-family="Times,serif" font-size="14.00" fill="#000000">ChessPieces</text>
<polyline fill="none" stroke="#000000" points="533.9116,-293.7 701.5092,-293.7 "/>
<text text-anchor="start" x="541.9116" y="-277.1" font-family="Times,serif" font-size="14.00" fill="#000000">controler</text>
<text text-anchor="start" x="541.9116" y="-260.3" font-family="Times,serif" font-size="14.00" fill="#000000">layout</text>
<polyline fill="none" stroke="#000000" points="533.9116,-252.1 701.5092,-252.1 "/>
<text text-anchor="start" x="541.9116" y="-235.5" font-family="Times,serif" font-size="14.00" fill="#000000">delete_piece()</text>
<text text-anchor="start" x="541.9116" y="-218.7" font-family="Times,serif" font-size="14.00" fill="#000000">execute_with_delay(delay)</text>
<text text-anchor="start" x="541.9116" y="-201.9" font-family="Times,serif" font-size="14.00" fill="#000000">piece_clicked()</text>
<text text-anchor="start" x="541.9116" y="-185.1" font-family="Times,serif" font-size="14.00" fill="#000000">pieces()</text>
<text text-anchor="start" x="541.9116" y="-168.3" font-family="Times,serif" font-size="14.00" fill="#000000">refresh()</text>
</g>
<!-- 1&#45;&gt;0 -->
<g id="edge4" class="edge">
<title>1-&gt;0</title>
<path fill="none" stroke="#000000" d="M617.7104,-318.6943C617.7104,-395.5146 617.7104,-512.2085 617.7104,-595.2808"/>
<polygon fill="#000000" stroke="#000000" points="617.7105,-595.2847 621.7104,-601.2847 617.7104,-607.2847 613.7104,-601.2846 617.7105,-595.2847"/>
<text text-anchor="middle" x="654.6375" y="-500.8" font-family="Times,serif" font-size="14.00" fill="#00ff00">board_pieces</text>
</g>
<!-- 2 -->
<g id="node3" class="node">
<title>2</title>
<polygon fill="none" stroke="#000000" points="0,-548.7 0,-841.5 91.4208,-841.5 91.4208,-548.7 0,-548.7"/>
<text text-anchor="middle" x="45.7104" y="-824.9" font-family="Times,serif" font-size="14.00" fill="#000000">ChessTimer</text>
<polyline fill="none" stroke="#000000" points="0,-816.7 91.4208,-816.7 "/>
<text text-anchor="start" x="8" y="-800.1" font-family="Times,serif" font-size="14.00" fill="#000000">controler</text>
<text text-anchor="start" x="8" y="-783.3" font-family="Times,serif" font-size="14.00" fill="#000000">label</text>
<text text-anchor="start" x="8" y="-766.5" font-family="Times,serif" font-size="14.00" fill="#000000">label2</text>
<text text-anchor="start" x="8" y="-749.7" font-family="Times,serif" font-size="14.00" fill="#000000">time</text>
<text text-anchor="start" x="8" y="-732.9" font-family="Times,serif" font-size="14.00" fill="#000000">time2</text>
<text text-anchor="start" x="8" y="-716.1" font-family="Times,serif" font-size="14.00" fill="#000000">timer</text>
<text text-anchor="start" x="8" y="-699.3" font-family="Times,serif" font-size="14.00" fill="#000000">timer2</text>
<polyline fill="none" stroke="#000000" points="0,-691.1 91.4208,-691.1 "/>
<text text-anchor="start" x="8" y="-674.5" font-family="Times,serif" font-size="14.00" fill="#000000">editDesign()</text>
<text text-anchor="start" x="8" y="-657.7" font-family="Times,serif" font-size="14.00" fill="#000000">endTimer()</text>
<text text-anchor="start" x="8" y="-640.9" font-family="Times,serif" font-size="14.00" fill="#000000">endTimer2()</text>
<text text-anchor="start" x="8" y="-624.1" font-family="Times,serif" font-size="14.00" fill="#000000">refresh()</text>
<text text-anchor="start" x="8" y="-607.3" font-family="Times,serif" font-size="14.00" fill="#000000">showTime()</text>
<text text-anchor="start" x="8" y="-590.5" font-family="Times,serif" font-size="14.00" fill="#000000">showTime2()</text>
<text text-anchor="start" x="8" y="-573.7" font-family="Times,serif" font-size="14.00" fill="#000000">startTimer()</text>
<text text-anchor="start" x="8" y="-556.9" font-family="Times,serif" font-size="14.00" fill="#000000">startTimer2()</text>
</g>
<!-- 2&#45;&gt;8 -->
<g id="edge5" class="edge">
<title>2-&gt;8</title>
<path fill="none" stroke="#000000" d="M83.0976,-841.5182C93.3258,-861.1287 106.3271,-879.3525 122.845,-893.6 165.8075,-930.6573 225.2256,-956.7026 269.5353,-972.5293"/>
<polygon fill="#000000" stroke="#000000" points="269.6959,-972.5851 276.6771,-970.7786 281.0297,-976.528 274.0485,-978.3345 269.6959,-972.5851"/>
<text text-anchor="middle" x="157.1431" y="-881" font-family="Times,serif" font-size="14.00" fill="#00ff00">chess_timer</text>
</g>
<!-- 3 -->
<g id="node4" class="node">
<title>3</title>
<polygon fill="none" stroke="#000000" points="719.3832,-176.9 719.3832,-301.7 962.0376,-301.7 962.0376,-176.9 719.3832,-176.9"/>
<text text-anchor="middle" x="840.7104" y="-285.1" font-family="Times,serif" font-size="14.00" fill="#000000">ClickableLabel</text>
<polyline fill="none" stroke="#000000" points="719.3832,-276.9 962.0376,-276.9 "/>
<text text-anchor="start" x="727.3832" y="-260.3" font-family="Times,serif" font-size="14.00" fill="#000000">clicked</text>
<text text-anchor="start" x="727.3832" y="-243.5" font-family="Times,serif" font-size="14.00" fill="#000000">j : int</text>
<text text-anchor="start" x="727.3832" y="-226.7" font-family="Times,serif" font-size="14.00" fill="#000000">type : str</text>
<text text-anchor="start" x="727.3832" y="-209.9" font-family="Times,serif" font-size="14.00" fill="#000000">x : int</text>
<polyline fill="none" stroke="#000000" points="719.3832,-201.7 962.0376,-201.7 "/>
<text text-anchor="start" x="727.3832" y="-185.1" font-family="Times,serif" font-size="14.00" fill="#000000">mousePressEvent(event: QMouseEvent)</text>
</g>
<!-- 4 -->
<g id="node5" class="node">
<title>4</title>
<polygon fill="none" stroke="#000000" points="979.6788,-185.3 979.6788,-293.3 1089.742,-293.3 1089.742,-185.3 979.6788,-185.3"/>
<text text-anchor="middle" x="1034.7104" y="-276.7" font-family="Times,serif" font-size="14.00" fill="#000000">IsoCalendarDate</text>
<polyline fill="none" stroke="#000000" points="979.6788,-268.5 1089.742,-268.5 "/>
<text text-anchor="start" x="987.6788" y="-251.9" font-family="Times,serif" font-size="14.00" fill="#000000">week</text>
<text text-anchor="start" x="987.6788" y="-235.1" font-family="Times,serif" font-size="14.00" fill="#000000">weekday</text>
<text text-anchor="start" x="987.6788" y="-218.3" font-family="Times,serif" font-size="14.00" fill="#000000">year</text>
<polyline fill="none" stroke="#000000" points="979.6788,-210.1 1089.742,-210.1 "/>
<text text-anchor="middle" x="1034.7104" y="-193.5" font-family="Times,serif" font-size="14.00" fill="#000000"> </text>
</g>
<!-- 5 -->
<g id="node6" class="node">
<title>5</title>
<polygon fill="none" stroke="#000000" points="253.8941,-1124.3 253.8941,-1534.7 407.5267,-1534.7 407.5267,-1124.3 253.8941,-1124.3"/>
<text text-anchor="middle" x="330.7104" y="-1518.1" font-family="Times,serif" font-size="14.00" fill="#000000">MainWindow</text>
<polyline fill="none" stroke="#000000" points="253.8941,-1509.9 407.5267,-1509.9 "/>
<text text-anchor="start" x="261.8941" y="-1493.3" font-family="Times,serif" font-size="14.00" fill="#000000">IA1_level</text>
<text text-anchor="start" x="261.8941" y="-1476.5" font-family="Times,serif" font-size="14.00" fill="#000000">IA2_level</text>
<text text-anchor="start" x="261.8941" y="-1459.7" font-family="Times,serif" font-size="14.00" fill="#000000">IA_level</text>
<text text-anchor="start" x="261.8941" y="-1442.9" font-family="Times,serif" font-size="14.00" fill="#000000">User_team</text>
<text text-anchor="start" x="261.8941" y="-1426.1" font-family="Times,serif" font-size="14.00" fill="#000000">controler</text>
<text text-anchor="start" x="261.8941" y="-1409.3" font-family="Times,serif" font-size="14.00" fill="#000000">game_type</text>
<text text-anchor="start" x="261.8941" y="-1392.5" font-family="Times,serif" font-size="14.00" fill="#000000">layout</text>
<text text-anchor="start" x="261.8941" y="-1375.7" font-family="Times,serif" font-size="14.00" fill="#000000">load</text>
<text text-anchor="start" x="261.8941" y="-1358.9" font-family="Times,serif" font-size="14.00" fill="#000000">mainwidget</text>
<text text-anchor="start" x="261.8941" y="-1342.1" font-family="Times,serif" font-size="14.00" fill="#000000">start_button</text>
<text text-anchor="start" x="261.8941" y="-1325.3" font-family="Times,serif" font-size="14.00" fill="#000000">time_max</text>
<polyline fill="none" stroke="#000000" points="253.8941,-1317.1 407.5267,-1317.1 "/>
<text text-anchor="start" x="261.8941" y="-1300.5" font-family="Times,serif" font-size="14.00" fill="#000000">IA_vs_IA()</text>
<text text-anchor="start" x="261.8941" y="-1283.7" font-family="Times,serif" font-size="14.00" fill="#000000">IA_vs_IA_level1()</text>
<text text-anchor="start" x="261.8941" y="-1266.9" font-family="Times,serif" font-size="14.00" fill="#000000">IA_vs_IA_level2()</text>
<text text-anchor="start" x="261.8941" y="-1250.1" font-family="Times,serif" font-size="14.00" fill="#000000">IA_vs_player_level()</text>
<text text-anchor="start" x="261.8941" y="-1233.3" font-family="Times,serif" font-size="14.00" fill="#000000">IA_vs_player_team()</text>
<text text-anchor="start" x="261.8941" y="-1216.5" font-family="Times,serif" font-size="14.00" fill="#000000">change_time()</text>
<text text-anchor="start" x="261.8941" y="-1199.7" font-family="Times,serif" font-size="14.00" fill="#000000">loadFile()</text>
<text text-anchor="start" x="261.8941" y="-1182.9" font-family="Times,serif" font-size="14.00" fill="#000000">next_option(game_type)</text>
<text text-anchor="start" x="261.8941" y="-1166.1" font-family="Times,serif" font-size="14.00" fill="#000000">player_vs_IA()</text>
<text text-anchor="start" x="261.8941" y="-1149.3" font-family="Times,serif" font-size="14.00" fill="#000000">player_vs_player()</text>
<text text-anchor="start" x="261.8941" y="-1132.5" font-family="Times,serif" font-size="14.00" fill="#000000">start_game()</text>
</g>
<!-- 6 -->
<g id="node7" class="node">
<title>6</title>
<polygon fill="none" stroke="#000000" points="109.0189,-649.5 109.0189,-740.7 214.4019,-740.7 214.4019,-649.5 109.0189,-649.5"/>
<text text-anchor="middle" x="161.7104" y="-724.1" font-family="Times,serif" font-size="14.00" fill="#000000">RestartInterface</text>
<polyline fill="none" stroke="#000000" points="109.0189,-715.9 214.4019,-715.9 "/>
<text text-anchor="start" x="117.0189" y="-699.3" font-family="Times,serif" font-size="14.00" fill="#000000">controler</text>
<text text-anchor="start" x="117.0189" y="-682.5" font-family="Times,serif" font-size="14.00" fill="#000000">res_button</text>
<polyline fill="none" stroke="#000000" points="109.0189,-674.3 214.4019,-674.3 "/>
<text text-anchor="middle" x="161.7104" y="-657.7" font-family="Times,serif" font-size="14.00" fill="#000000"> </text>
</g>
<!-- 6&#45;&gt;8 -->
<g id="edge6" class="edge">
<title>6-&gt;8</title>
<path fill="none" stroke="#000000" d="M161.8388,-741.0457C163.9537,-783.6102 172.3549,-847.1626 201.5084,-893.6 218.4615,-920.6039 245.7407,-942.8522 270.8742,-959.2605"/>
<polygon fill="#000000" stroke="#000000" points="270.9545,-959.311 278.1633,-959.1246 281.1079,-965.7071 273.8992,-965.8935 270.9545,-959.311"/>
<text text-anchor="middle" x="243.3114" y="-881" font-family="Times,serif" font-size="14.00" fill="#00ff00">restart_options</text>
</g>
<!-- 7 -->
<g id="node8" class="node">
<title>7</title>
<polygon fill="none" stroke="#000000" points="232.8829,-641.1 232.8829,-749.1 316.5379,-749.1 316.5379,-641.1 232.8829,-641.1"/>
<text text-anchor="middle" x="274.7104" y="-732.5" font-family="Times,serif" font-size="14.00" fill="#000000">SaveFile</text>
<polyline fill="none" stroke="#000000" points="232.8829,-724.3 316.5379,-724.3 "/>
<text text-anchor="start" x="240.8829" y="-707.7" font-family="Times,serif" font-size="14.00" fill="#000000">controler</text>
<text text-anchor="start" x="240.8829" y="-690.9" font-family="Times,serif" font-size="14.00" fill="#000000">hist : list</text>
<text text-anchor="start" x="240.8829" y="-674.1" font-family="Times,serif" font-size="14.00" fill="#000000">save_button</text>
<polyline fill="none" stroke="#000000" points="232.8829,-665.9 316.5379,-665.9 "/>
<text text-anchor="start" x="240.8829" y="-649.3" font-family="Times,serif" font-size="14.00" fill="#000000">save_data()</text>
</g>
<!-- 7&#45;&gt;8 -->
<g id="edge7" class="edge">
<title>7-&gt;8</title>
<path fill="none" stroke="#000000" d="M275.0255,-749.2775C276.2916,-789.5714 280.2401,-845.6439 291.6108,-893.6 292.1258,-895.7721 292.6808,-897.9594 293.2706,-900.1556"/>
<polygon fill="#000000" stroke="#000000" points="293.352,-900.4332 298.8792,-905.0647 296.7298,-911.9481 291.2026,-907.3166 293.352,-900.4332"/>
<text text-anchor="middle" x="328.2602" y="-881" font-family="Times,serif" font-size="14.00" fill="#00ff00">save_options</text>
</g>
<!-- 8&#45;&gt;5 -->
<g id="edge8" class="edge">
<title>8-&gt;5</title>
<path fill="none" stroke="#000000" d="M330.7104,-1070.5929C330.7104,-1083.5579 330.7104,-1097.5151 330.7104,-1111.9891"/>
<polygon fill="#000000" stroke="#000000" points="330.7105,-1112.2583 334.7104,-1118.2584 330.7104,-1124.2583 326.7104,-1118.2583 330.7105,-1112.2583"/>
<text text-anchor="middle" x="363.7595" y="-1093.2" font-family="Times,serif" font-size="14.00" fill="#00ff00">mainwidget</text>
</g>
<!-- 9 -->
<g id="node10" class="node">
<title>9</title>
<polygon fill="none" stroke="#000000" points="1195.3765,-531.9 1195.3765,-858.3 1422.0443,-858.3 1422.0443,-531.9 1195.3765,-531.9"/>
<text text-anchor="middle" x="1308.7104" y="-841.7" font-family="Times,serif" font-size="14.00" fill="#000000">date</text>
<polyline fill="none" stroke="#000000" points="1195.3765,-833.5 1422.0443,-833.5 "/>
<text text-anchor="start" x="1203.3765" y="-816.9" font-family="Times,serif" font-size="14.00" fill="#000000">day</text>
<text text-anchor="start" x="1203.3765" y="-800.1" font-family="Times,serif" font-size="14.00" fill="#000000">month</text>
<text text-anchor="start" x="1203.3765" y="-783.3" font-family="Times,serif" font-size="14.00" fill="#000000">year</text>
<polyline fill="none" stroke="#000000" points="1195.3765,-775.1 1422.0443,-775.1 "/>
<text text-anchor="start" x="1203.3765" y="-758.5" font-family="Times,serif" font-size="14.00" fill="#000000">ctime()</text>
<text text-anchor="start" x="1203.3765" y="-741.7" font-family="Times,serif" font-size="14.00" fill="#000000">fromisocalendar(cls, year, week, day)</text>
<text text-anchor="start" x="1203.3765" y="-724.9" font-family="Times,serif" font-size="14.00" fill="#000000">fromisoformat(cls, date_string)</text>
<text text-anchor="start" x="1203.3765" y="-708.1" font-family="Times,serif" font-size="14.00" fill="#000000">fromordinal(cls, n)</text>
<text text-anchor="start" x="1203.3765" y="-691.3" font-family="Times,serif" font-size="14.00" fill="#000000">fromtimestamp(cls, t)</text>
<text text-anchor="start" x="1203.3765" y="-674.5" font-family="Times,serif" font-size="14.00" fill="#000000">isocalendar()</text>
<text text-anchor="start" x="1203.3765" y="-657.7" font-family="Times,serif" font-size="14.00" fill="#000000">isoformat()</text>
<text text-anchor="start" x="1203.3765" y="-640.9" font-family="Times,serif" font-size="14.00" fill="#000000">isoweekday()</text>
<text text-anchor="start" x="1203.3765" y="-624.1" font-family="Times,serif" font-size="14.00" fill="#000000">replace(year, month, day)</text>
<text text-anchor="start" x="1203.3765" y="-607.3" font-family="Times,serif" font-size="14.00" fill="#000000">strftime(fmt)</text>
<text text-anchor="start" x="1203.3765" y="-590.5" font-family="Times,serif" font-size="14.00" fill="#000000">timetuple()</text>
<text text-anchor="start" x="1203.3765" y="-573.7" font-family="Times,serif" font-size="14.00" fill="#000000">today(cls)</text>
<text text-anchor="start" x="1203.3765" y="-556.9" font-family="Times,serif" font-size="14.00" fill="#000000">toordinal()</text>
<text text-anchor="start" x="1203.3765" y="-540.1" font-family="Times,serif" font-size="14.00" fill="#000000">weekday()</text>
</g>
<!-- 10 -->
<g id="node11" class="node">
<title>10</title>
<polygon fill="none" stroke="#000000" points="1107.4985,-.5 1107.4985,-478.1 1509.9223,-478.1 1509.9223,-.5 1107.4985,-.5"/>
<text text-anchor="middle" x="1308.7104" y="-461.5" font-family="Times,serif" font-size="14.00" fill="#000000">datetime</text>
<polyline fill="none" stroke="#000000" points="1107.4985,-453.3 1509.9223,-453.3 "/>
<text text-anchor="start" x="1115.4985" y="-436.7" font-family="Times,serif" font-size="14.00" fill="#000000">fold</text>
<text text-anchor="start" x="1115.4985" y="-419.9" font-family="Times,serif" font-size="14.00" fill="#000000">hour</text>
<text text-anchor="start" x="1115.4985" y="-403.1" font-family="Times,serif" font-size="14.00" fill="#000000">microsecond</text>
<text text-anchor="start" x="1115.4985" y="-386.3" font-family="Times,serif" font-size="14.00" fill="#000000">minute</text>
<text text-anchor="start" x="1115.4985" y="-369.5" font-family="Times,serif" font-size="14.00" fill="#000000">second</text>
<text text-anchor="start" x="1115.4985" y="-352.7" font-family="Times,serif" font-size="14.00" fill="#000000">tzinfo</text>
<polyline fill="none" stroke="#000000" points="1107.4985,-344.5 1509.9223,-344.5 "/>
<text text-anchor="start" x="1115.4985" y="-327.9" font-family="Times,serif" font-size="14.00" fill="#000000">astimezone(tz)</text>
<text text-anchor="start" x="1115.4985" y="-311.1" font-family="Times,serif" font-size="14.00" fill="#000000">combine(cls, date, time, tzinfo)</text>
<text text-anchor="start" x="1115.4985" y="-294.3" font-family="Times,serif" font-size="14.00" fill="#000000">ctime()</text>
<text text-anchor="start" x="1115.4985" y="-277.5" font-family="Times,serif" font-size="14.00" fill="#000000">date()</text>
<text text-anchor="start" x="1115.4985" y="-260.7" font-family="Times,serif" font-size="14.00" fill="#000000">dst()</text>
<text text-anchor="start" x="1115.4985" y="-243.9" font-family="Times,serif" font-size="14.00" fill="#000000">fromisoformat(cls, date_string)</text>
<text text-anchor="start" x="1115.4985" y="-227.1" font-family="Times,serif" font-size="14.00" fill="#000000">fromtimestamp(cls, t, tz)</text>
<text text-anchor="start" x="1115.4985" y="-210.3" font-family="Times,serif" font-size="14.00" fill="#000000">isoformat(sep, timespec)</text>
<text text-anchor="start" x="1115.4985" y="-193.5" font-family="Times,serif" font-size="14.00" fill="#000000">now(cls, tz)</text>
<text text-anchor="start" x="1115.4985" y="-176.7" font-family="Times,serif" font-size="14.00" fill="#000000">replace(year, month, day, hour, minute, second, microsecond, tzinfo)</text>
<text text-anchor="start" x="1115.4985" y="-159.9" font-family="Times,serif" font-size="14.00" fill="#000000">strptime(cls, date_string, format)</text>
<text text-anchor="start" x="1115.4985" y="-143.1" font-family="Times,serif" font-size="14.00" fill="#000000">time()</text>
<text text-anchor="start" x="1115.4985" y="-126.3" font-family="Times,serif" font-size="14.00" fill="#000000">timestamp()</text>
<text text-anchor="start" x="1115.4985" y="-109.5" font-family="Times,serif" font-size="14.00" fill="#000000">timetuple()</text>
<text text-anchor="start" x="1115.4985" y="-92.7" font-family="Times,serif" font-size="14.00" fill="#000000">timetz()</text>
<text text-anchor="start" x="1115.4985" y="-75.9" font-family="Times,serif" font-size="14.00" fill="#000000">tzname()</text>
<text text-anchor="start" x="1115.4985" y="-59.1" font-family="Times,serif" font-size="14.00" fill="#000000">utcfromtimestamp(cls, t)</text>
<text text-anchor="start" x="1115.4985" y="-42.3" font-family="Times,serif" font-size="14.00" fill="#000000">utcnow(cls)</text>
<text text-anchor="start" x="1115.4985" y="-25.5" font-family="Times,serif" font-size="14.00" fill="#000000">utcoffset()</text>
<text text-anchor="start" x="1115.4985" y="-8.7" font-family="Times,serif" font-size="14.00" fill="#000000">utctimetuple()</text>
</g>
<!-- 10&#45;&gt;9 -->
<g id="edge1" class="edge">
<title>10-&gt;9</title>
<path fill="none" stroke="#000000" d="M1308.7104,-478.2128C1308.7104,-492.7565 1308.7104,-507.2402 1308.7104,-521.4263"/>
<polygon fill="none" stroke="#000000" points="1305.2105,-521.7 1308.7104,-531.7 1312.2105,-521.7 1305.2105,-521.7"/>
</g>
<!-- 11 -->
<g id="node12" class="node">
<title>11</title>
<polygon fill="none" stroke="#000000" points="334.3955,-649.5 334.3955,-740.7 439.0253,-740.7 439.0253,-649.5 334.3955,-649.5"/>
<text text-anchor="middle" x="386.7104" y="-724.1" font-family="Times,serif" font-size="14.00" fill="#000000">labelGameState</text>
<polyline fill="none" stroke="#000000" points="334.3955,-715.9 439.0253,-715.9 "/>
<text text-anchor="start" x="342.3955" y="-699.3" font-family="Times,serif" font-size="14.00" fill="#000000">controler</text>
<text text-anchor="start" x="342.3955" y="-682.5" font-family="Times,serif" font-size="14.00" fill="#000000">game_state</text>
<polyline fill="none" stroke="#000000" points="334.3955,-674.3 439.0253,-674.3 "/>
<text text-anchor="start" x="342.3955" y="-657.7" font-family="Times,serif" font-size="14.00" fill="#000000">refresh()</text>
</g>
<!-- 11&#45;&gt;8 -->
<g id="edge9" class="edge">
<title>11-&gt;8</title>
<path fill="none" stroke="#000000" d="M384.5552,-740.9136C381.9579,-781.4599 376.3856,-842.029 364.7104,-893.6 364.2187,-895.7717 363.6949,-897.9623 363.1433,-900.1647"/>
<polygon fill="#000000" stroke="#000000" points="363.072,-900.4299 365.3743,-907.2636 359.9517,-912.0171 357.6494,-905.1834 363.072,-900.4299"/>
<text text-anchor="middle" x="400.1978" y="-881" font-family="Times,serif" font-size="14.00" fill="#00ff00">game_state</text>
</g>
<!-- 12 -->
<g id="node13" class="node">
<title>12</title>
<polygon fill="none" stroke="#000000" points="456.5631,-641.1 456.5631,-749.1 544.8577,-749.1 544.8577,-641.1 456.5631,-641.1"/>
<text text-anchor="middle" x="500.7104" y="-732.5" font-family="Times,serif" font-size="14.00" fill="#000000">startIAGame</text>
<polyline fill="none" stroke="#000000" points="456.5631,-724.3 544.8577,-724.3 "/>
<text text-anchor="start" x="464.5631" y="-707.7" font-family="Times,serif" font-size="14.00" fill="#000000">controler</text>
<text text-anchor="start" x="464.5631" y="-690.9" font-family="Times,serif" font-size="14.00" fill="#000000">start_button</text>
<polyline fill="none" stroke="#000000" points="456.5631,-682.7 544.8577,-682.7 "/>
<text text-anchor="start" x="464.5631" y="-666.1" font-family="Times,serif" font-size="14.00" fill="#000000">refresh()</text>
<text text-anchor="start" x="464.5631" y="-649.3" font-family="Times,serif" font-size="14.00" fill="#000000">start()</text>
</g>
<!-- 12&#45;&gt;8 -->
<g id="edge10" class="edge">
<title>12-&gt;8</title>
<path fill="none" stroke="#000000" d="M490.9147,-749.4022C481.5442,-791.2972 464.4806,-849.3724 435.7104,-893.6 423.2806,-912.708 406.3132,-930.6438 389.643,-945.8022"/>
<polygon fill="#000000" stroke="#000000" points="389.4374,-945.9838 387.5882,-952.9538 380.4431,-953.9276 382.2923,-946.9576 389.4374,-945.9838"/>
<text text-anchor="middle" x="478.1515" y="-881" font-family="Times,serif" font-size="14.00" fill="#00ff00">start_option</text>
</g>
<!-- 13 -->
<g id="node14" class="node">
<title>13</title>
<polygon fill="none" stroke="#000000" points="1528.0413,-109.7 1528.0413,-368.9 1829.3795,-368.9 1829.3795,-109.7 1528.0413,-109.7"/>
<text text-anchor="middle" x="1678.7104" y="-352.3" font-family="Times,serif" font-size="14.00" fill="#000000">time</text>
<polyline fill="none" stroke="#000000" points="1528.0413,-344.1 1829.3795,-344.1 "/>
<text text-anchor="start" x="1536.0413" y="-327.5" font-family="Times,serif" font-size="14.00" fill="#000000">fold</text>
<text text-anchor="start" x="1536.0413" y="-310.7" font-family="Times,serif" font-size="14.00" fill="#000000">hour</text>
<text text-anchor="start" x="1536.0413" y="-293.9" font-family="Times,serif" font-size="14.00" fill="#000000">microsecond</text>
<text text-anchor="start" x="1536.0413" y="-277.1" font-family="Times,serif" font-size="14.00" fill="#000000">minute</text>
<text text-anchor="start" x="1536.0413" y="-260.3" font-family="Times,serif" font-size="14.00" fill="#000000">second</text>
<text text-anchor="start" x="1536.0413" y="-243.5" font-family="Times,serif" font-size="14.00" fill="#000000">tzinfo</text>
<polyline fill="none" stroke="#000000" points="1528.0413,-235.3 1829.3795,-235.3 "/>
<text text-anchor="start" x="1536.0413" y="-218.7" font-family="Times,serif" font-size="14.00" fill="#000000">dst()</text>
<text text-anchor="start" x="1536.0413" y="-201.9" font-family="Times,serif" font-size="14.00" fill="#000000">fromisoformat(cls, time_string)</text>
<text text-anchor="start" x="1536.0413" y="-185.1" font-family="Times,serif" font-size="14.00" fill="#000000">isoformat(timespec)</text>
<text text-anchor="start" x="1536.0413" y="-168.3" font-family="Times,serif" font-size="14.00" fill="#000000">replace(hour, minute, second, microsecond, tzinfo)</text>
<text text-anchor="start" x="1536.0413" y="-151.5" font-family="Times,serif" font-size="14.00" fill="#000000">strftime(fmt)</text>
<text text-anchor="start" x="1536.0413" y="-134.7" font-family="Times,serif" font-size="14.00" fill="#000000">tzname()</text>
<text text-anchor="start" x="1536.0413" y="-117.9" font-family="Times,serif" font-size="14.00" fill="#000000">utcoffset()</text>
</g>
<!-- 14 -->
<g id="node15" class="node">
<title>14</title>
<polygon fill="none" stroke="#000000" points="1846.9474,-185.3 1846.9474,-293.3 1948.4734,-293.3 1948.4734,-185.3 1846.9474,-185.3"/>
<text text-anchor="middle" x="1897.7104" y="-276.7" font-family="Times,serif" font-size="14.00" fill="#000000">timedelta</text>
<polyline fill="none" stroke="#000000" points="1846.9474,-268.5 1948.4734,-268.5 "/>
<text text-anchor="start" x="1854.9474" y="-251.9" font-family="Times,serif" font-size="14.00" fill="#000000">days</text>
<text text-anchor="start" x="1854.9474" y="-235.1" font-family="Times,serif" font-size="14.00" fill="#000000">microseconds</text>
<text text-anchor="start" x="1854.9474" y="-218.3" font-family="Times,serif" font-size="14.00" fill="#000000">seconds</text>
<polyline fill="none" stroke="#000000" points="1846.9474,-210.1 1948.4734,-210.1 "/>
<text text-anchor="start" x="1854.9474" y="-193.5" font-family="Times,serif" font-size="14.00" fill="#000000">total_seconds()</text>
</g>
<!-- 15 -->
<g id="node16" class="node">
<title>15</title>
<polygon fill="none" stroke="#000000" points="1855.1164,-633.1 1855.1164,-757.1 1940.3044,-757.1 1940.3044,-633.1 1855.1164,-633.1"/>
<text text-anchor="middle" x="1897.7104" y="-740.5" font-family="Times,serif" font-size="14.00" fill="#000000">timezone</text>
<polyline fill="none" stroke="#000000" points="1855.1164,-732.3 1940.3044,-732.3 "/>
<polyline fill="none" stroke="#000000" points="1855.1164,-708.3 1940.3044,-708.3 "/>
<text text-anchor="start" x="1863.1164" y="-691.7" font-family="Times,serif" font-size="14.00" fill="#000000">dst(dt)</text>
<text text-anchor="start" x="1863.1164" y="-674.9" font-family="Times,serif" font-size="14.00" fill="#000000">fromutc(dt)</text>
<text text-anchor="start" x="1863.1164" y="-658.1" font-family="Times,serif" font-size="14.00" fill="#000000">tzname(dt)</text>
<text text-anchor="start" x="1863.1164" y="-641.3" font-family="Times,serif" font-size="14.00" fill="#000000">utcoffset(dt)</text>
</g>
<!-- 14&#45;&gt;15 -->
<g id="edge11" class="edge">
<title>14-&gt;15</title>
<path fill="none" stroke="#000000" d="M1880.819,-293.4821C1865.6454,-348.6568 1846.9954,-436.7496 1855.7342,-513.4 1859.8333,-549.3548 1868.355,-588.5508 1876.6559,-621.3034"/>
<polygon fill="#000000" stroke="#000000" points="1876.6919,-621.4427 1882.0664,-626.2505 1879.6956,-633.0607 1874.321,-628.253 1876.6919,-621.4427"/>
<text text-anchor="middle" x="1887.1985" y="-500.8" font-family="Times,serif" font-size="14.00" fill="#00ff00">_maxoffset</text>
</g>
<!-- 14&#45;&gt;15 -->
<g id="edge12" class="edge">
<title>14-&gt;15</title>
<path fill="none" stroke="#000000" d="M1906.1362,-293.3477C1913.7422,-348.6027 1923.115,-436.9261 1918.7104,-513.4 1916.6703,-548.8202 1912.411,-587.9323 1908.2582,-620.7672"/>
<polygon fill="#000000" stroke="#000000" points="1908.2125,-621.122 1911.4117,-627.5846 1906.6766,-633.0233 1903.4774,-626.5607 1908.2125,-621.122"/>
<text text-anchor="middle" x="1949.0365" y="-500.8" font-family="Times,serif" font-size="14.00" fill="#00ff00">_minoffset</text>
</g>
<!-- 16 -->
<g id="node17" class="node">
<title>16</title>
<polygon fill="none" stroke="#000000" points="1855.1164,-929.3 1855.1164,-1053.3 1940.3044,-1053.3 1940.3044,-929.3 1855.1164,-929.3"/>
<text text-anchor="middle" x="1897.7104" y="-1036.7" font-family="Times,serif" font-size="14.00" fill="#000000">tzinfo</text>
<polyline fill="none" stroke="#000000" points="1855.1164,-1028.5 1940.3044,-1028.5 "/>
<polyline fill="none" stroke="#000000" points="1855.1164,-1004.5 1940.3044,-1004.5 "/>
<text text-anchor="start" x="1863.1164" y="-987.9" font-family="Times,serif" font-size="14.00" fill="#000000">dst(dt)</text>
<text text-anchor="start" x="1863.1164" y="-971.1" font-family="Times,serif" font-size="14.00" fill="#000000">fromutc(dt)</text>
<text text-anchor="start" x="1863.1164" y="-954.3" font-family="Times,serif" font-size="14.00" fill="#000000">tzname(dt)</text>
<text text-anchor="start" x="1863.1164" y="-937.5" font-family="Times,serif" font-size="14.00" fill="#000000">utcoffset(dt)</text>
</g>
<!-- 15&#45;&gt;16 -->
<g id="edge2" class="edge">
<title>15-&gt;16</title>
<path fill="none" stroke="#000000" d="M1897.7104,-757.1932C1897.7104,-804.4875 1897.7104,-869.6891 1897.7104,-919.2737"/>
<polygon fill="none" stroke="#000000" points="1894.2105,-919.2885 1897.7104,-929.2885 1901.2105,-919.2886 1894.2105,-919.2885"/>
</g>
</g>
</svg>